<mxfile host="app.diagrams.net" modified="2023-11-26T20:40:51.118Z" agent="Mozilla/5.0 (Windows NT 10.0; Win64; x64) AppleWebKit/537.36 (KHTML, like Gecko) Chrome/119.0.0.0 Safari/537.36" etag="XasMeuSYAVIBua_On2MU" version="22.1.4" type="google">
  <diagram name="Page-1" id="e7e014a7-5840-1c2e-5031-d8a46d1fe8dd">
    <mxGraphModel grid="1" page="1" gridSize="10" guides="1" tooltips="1" connect="1" arrows="1" fold="1" pageScale="1" pageWidth="1169" pageHeight="826" background="none" math="0" shadow="0">
      <root>
        <mxCell id="0" />
        <mxCell id="1" parent="0" />
        <mxCell id="1IYbtN-VbHsIZUtmCUXf-41" value="&lt;font style=&quot;font-size: 17px;&quot;&gt;Requisitos Não Funcionais&lt;/font&gt;" style="text;html=1;align=center;verticalAlign=middle;resizable=0;points=[];autosize=1;strokeColor=none;fillColor=none;" vertex="1" parent="1">
          <mxGeometry x="680" y="20" width="230" height="30" as="geometry" />
        </mxCell>
        <mxCell id="HSkIcH4tQaM3lMBgQ2yI-1" value="Desempenho" style="ellipse;shape=cloud;whiteSpace=wrap;html=1;" vertex="1" parent="1">
          <mxGeometry x="360" y="100" width="120" height="80" as="geometry" />
        </mxCell>
        <mxCell id="HSkIcH4tQaM3lMBgQ2yI-2" value="Tempo de Consulta" style="ellipse;shape=cloud;whiteSpace=wrap;html=1;" vertex="1" parent="1">
          <mxGeometry x="80" y="210" width="120" height="80" as="geometry" />
        </mxCell>
        <mxCell id="HSkIcH4tQaM3lMBgQ2yI-3" style="edgeStyle=orthogonalEdgeStyle;rounded=0;orthogonalLoop=1;jettySize=auto;html=1;exitX=0.07;exitY=0.4;exitDx=0;exitDy=0;exitPerimeter=0;entryX=0.625;entryY=0.2;entryDx=0;entryDy=0;entryPerimeter=0;" edge="1" parent="1" source="HSkIcH4tQaM3lMBgQ2yI-1" target="HSkIcH4tQaM3lMBgQ2yI-2">
          <mxGeometry relative="1" as="geometry" />
        </mxCell>
        <mxCell id="HSkIcH4tQaM3lMBgQ2yI-4" value="Acessar informações" style="ellipse;shape=cloud;whiteSpace=wrap;html=1;" vertex="1" parent="1">
          <mxGeometry x="170" y="333" width="120" height="80" as="geometry" />
        </mxCell>
        <mxCell id="HSkIcH4tQaM3lMBgQ2yI-5" value="Acessar banco de Dados" style="ellipse;shape=cloud;whiteSpace=wrap;html=1;" vertex="1" parent="1">
          <mxGeometry x="-20" y="333" width="120" height="80" as="geometry" />
        </mxCell>
        <mxCell id="HSkIcH4tQaM3lMBgQ2yI-6" style="edgeStyle=orthogonalEdgeStyle;rounded=0;orthogonalLoop=1;jettySize=auto;html=1;exitX=0.13;exitY=0.77;exitDx=0;exitDy=0;exitPerimeter=0;entryX=0.4;entryY=0.1;entryDx=0;entryDy=0;entryPerimeter=0;" edge="1" parent="1" source="HSkIcH4tQaM3lMBgQ2yI-2" target="HSkIcH4tQaM3lMBgQ2yI-5">
          <mxGeometry relative="1" as="geometry" />
        </mxCell>
        <mxCell id="HSkIcH4tQaM3lMBgQ2yI-7" style="edgeStyle=orthogonalEdgeStyle;rounded=0;orthogonalLoop=1;jettySize=auto;html=1;exitX=0.8;exitY=0.8;exitDx=0;exitDy=0;exitPerimeter=0;entryX=0.625;entryY=0.2;entryDx=0;entryDy=0;entryPerimeter=0;" edge="1" parent="1" source="HSkIcH4tQaM3lMBgQ2yI-2" target="HSkIcH4tQaM3lMBgQ2yI-4">
          <mxGeometry relative="1" as="geometry" />
        </mxCell>
        <mxCell id="HSkIcH4tQaM3lMBgQ2yI-8" value="Segurança" style="ellipse;shape=cloud;whiteSpace=wrap;html=1;" vertex="1" parent="1">
          <mxGeometry x="585" y="280" width="120" height="80" as="geometry" />
        </mxCell>
        <mxCell id="HSkIcH4tQaM3lMBgQ2yI-10" value="Dsponiblidade" style="ellipse;shape=cloud;whiteSpace=wrap;html=1;" vertex="1" parent="1">
          <mxGeometry x="850" y="413" width="120" height="80" as="geometry" />
        </mxCell>
        <mxCell id="HSkIcH4tQaM3lMBgQ2yI-11" style="edgeStyle=orthogonalEdgeStyle;rounded=0;orthogonalLoop=1;jettySize=auto;html=1;exitX=0.96;exitY=0.7;exitDx=0;exitDy=0;exitPerimeter=0;entryX=0.625;entryY=0.2;entryDx=0;entryDy=0;entryPerimeter=0;" edge="1" parent="1" source="HSkIcH4tQaM3lMBgQ2yI-8" target="HSkIcH4tQaM3lMBgQ2yI-10">
          <mxGeometry relative="1" as="geometry" />
        </mxCell>
        <mxCell id="HSkIcH4tQaM3lMBgQ2yI-12" value="Usabilidade" style="ellipse;shape=cloud;whiteSpace=wrap;html=1;" vertex="1" parent="1">
          <mxGeometry x="1110" y="200" width="120" height="80" as="geometry" />
        </mxCell>
        <mxCell id="HSkIcH4tQaM3lMBgQ2yI-30" style="edgeStyle=orthogonalEdgeStyle;rounded=0;orthogonalLoop=1;jettySize=auto;html=1;exitX=0.25;exitY=0.25;exitDx=0;exitDy=0;exitPerimeter=0;" edge="1" parent="1" source="HSkIcH4tQaM3lMBgQ2yI-14" target="HSkIcH4tQaM3lMBgQ2yI-27">
          <mxGeometry relative="1" as="geometry" />
        </mxCell>
        <mxCell id="HSkIcH4tQaM3lMBgQ2yI-14" value="Registro de Atividades" style="ellipse;shape=cloud;whiteSpace=wrap;html=1;" vertex="1" parent="1">
          <mxGeometry x="1390" y="253" width="120" height="80" as="geometry" />
        </mxCell>
        <mxCell id="HSkIcH4tQaM3lMBgQ2yI-16" value="Horarios" style="ellipse;shape=cloud;whiteSpace=wrap;html=1;" vertex="1" parent="1">
          <mxGeometry x="1430" y="430" width="120" height="80" as="geometry" />
        </mxCell>
        <mxCell id="HSkIcH4tQaM3lMBgQ2yI-17" value="Feedback" style="ellipse;shape=cloud;whiteSpace=wrap;html=1;" vertex="1" parent="1">
          <mxGeometry x="1620" y="270" width="120" height="80" as="geometry" />
        </mxCell>
        <mxCell id="HSkIcH4tQaM3lMBgQ2yI-18" value="Avalição/Nota" style="ellipse;shape=cloud;whiteSpace=wrap;html=1;" vertex="1" parent="1">
          <mxGeometry x="1410" y="90" width="120" height="80" as="geometry" />
        </mxCell>
        <mxCell id="HSkIcH4tQaM3lMBgQ2yI-19" style="edgeStyle=orthogonalEdgeStyle;rounded=0;orthogonalLoop=1;jettySize=auto;html=1;exitX=0.625;exitY=0.2;exitDx=0;exitDy=0;exitPerimeter=0;entryX=0.461;entryY=0.934;entryDx=0;entryDy=0;entryPerimeter=0;" edge="1" parent="1" source="HSkIcH4tQaM3lMBgQ2yI-14" target="HSkIcH4tQaM3lMBgQ2yI-18">
          <mxGeometry relative="1" as="geometry" />
        </mxCell>
        <mxCell id="HSkIcH4tQaM3lMBgQ2yI-20" style="edgeStyle=orthogonalEdgeStyle;rounded=0;orthogonalLoop=1;jettySize=auto;html=1;exitX=0.875;exitY=0.5;exitDx=0;exitDy=0;exitPerimeter=0;entryX=0.07;entryY=0.4;entryDx=0;entryDy=0;entryPerimeter=0;" edge="1" parent="1" source="HSkIcH4tQaM3lMBgQ2yI-14" target="HSkIcH4tQaM3lMBgQ2yI-17">
          <mxGeometry relative="1" as="geometry" />
        </mxCell>
        <mxCell id="HSkIcH4tQaM3lMBgQ2yI-21" style="edgeStyle=orthogonalEdgeStyle;rounded=0;orthogonalLoop=1;jettySize=auto;html=1;exitX=0.55;exitY=0.95;exitDx=0;exitDy=0;exitPerimeter=0;entryX=0.4;entryY=0.1;entryDx=0;entryDy=0;entryPerimeter=0;" edge="1" parent="1" source="HSkIcH4tQaM3lMBgQ2yI-14" target="HSkIcH4tQaM3lMBgQ2yI-16">
          <mxGeometry relative="1" as="geometry" />
        </mxCell>
        <mxCell id="HSkIcH4tQaM3lMBgQ2yI-22" value="Interface" style="ellipse;shape=cloud;whiteSpace=wrap;html=1;" vertex="1" parent="1">
          <mxGeometry x="960" y="253" width="120" height="80" as="geometry" />
        </mxCell>
        <mxCell id="HSkIcH4tQaM3lMBgQ2yI-23" style="edgeStyle=orthogonalEdgeStyle;rounded=0;orthogonalLoop=1;jettySize=auto;html=1;exitX=0.31;exitY=0.8;exitDx=0;exitDy=0;exitPerimeter=0;entryX=0.625;entryY=0.2;entryDx=0;entryDy=0;entryPerimeter=0;" edge="1" parent="1" source="HSkIcH4tQaM3lMBgQ2yI-12" target="HSkIcH4tQaM3lMBgQ2yI-22">
          <mxGeometry relative="1" as="geometry" />
        </mxCell>
        <mxCell id="HSkIcH4tQaM3lMBgQ2yI-24" value="Acesso via Web" style="ellipse;shape=cloud;whiteSpace=wrap;html=1;" vertex="1" parent="1">
          <mxGeometry x="1020" y="450" width="120" height="80" as="geometry" />
        </mxCell>
        <mxCell id="HSkIcH4tQaM3lMBgQ2yI-25" style="edgeStyle=orthogonalEdgeStyle;rounded=0;orthogonalLoop=1;jettySize=auto;html=1;exitX=0.55;exitY=0.95;exitDx=0;exitDy=0;exitPerimeter=0;entryX=0.625;entryY=0.2;entryDx=0;entryDy=0;entryPerimeter=0;" edge="1" parent="1" source="HSkIcH4tQaM3lMBgQ2yI-22" target="HSkIcH4tQaM3lMBgQ2yI-24">
          <mxGeometry relative="1" as="geometry" />
        </mxCell>
        <mxCell id="HSkIcH4tQaM3lMBgQ2yI-26" style="edgeStyle=orthogonalEdgeStyle;rounded=0;orthogonalLoop=1;jettySize=auto;html=1;exitX=0.55;exitY=0.95;exitDx=0;exitDy=0;exitPerimeter=0;entryX=0.16;entryY=0.55;entryDx=0;entryDy=0;entryPerimeter=0;" edge="1" parent="1" source="HSkIcH4tQaM3lMBgQ2yI-10" target="HSkIcH4tQaM3lMBgQ2yI-24">
          <mxGeometry relative="1" as="geometry" />
        </mxCell>
        <mxCell id="HSkIcH4tQaM3lMBgQ2yI-27" value="Backup" style="ellipse;shape=cloud;whiteSpace=wrap;html=1;" vertex="1" parent="1">
          <mxGeometry x="1230" y="60" width="120" height="80" as="geometry" />
        </mxCell>
        <mxCell id="HSkIcH4tQaM3lMBgQ2yI-31" value="Confiabildade" style="ellipse;shape=cloud;whiteSpace=wrap;html=1;" vertex="1" parent="1">
          <mxGeometry x="1000" y="60" width="120" height="80" as="geometry" />
        </mxCell>
        <mxCell id="HSkIcH4tQaM3lMBgQ2yI-32" style="edgeStyle=orthogonalEdgeStyle;rounded=0;orthogonalLoop=1;jettySize=auto;html=1;exitX=0.875;exitY=0.5;exitDx=0;exitDy=0;exitPerimeter=0;entryX=0.16;entryY=0.55;entryDx=0;entryDy=0;entryPerimeter=0;" edge="1" parent="1" source="HSkIcH4tQaM3lMBgQ2yI-31" target="HSkIcH4tQaM3lMBgQ2yI-27">
          <mxGeometry relative="1" as="geometry" />
        </mxCell>
        <mxCell id="HSkIcH4tQaM3lMBgQ2yI-34" value="" style="endArrow=classic;startArrow=classic;html=1;rounded=0;entryX=0.16;entryY=0.55;entryDx=0;entryDy=0;entryPerimeter=0;exitX=0.88;exitY=0.25;exitDx=0;exitDy=0;exitPerimeter=0;" edge="1" parent="1" source="HSkIcH4tQaM3lMBgQ2yI-1" target="HSkIcH4tQaM3lMBgQ2yI-31">
          <mxGeometry width="50" height="50" relative="1" as="geometry">
            <mxPoint x="860" y="110" as="sourcePoint" />
            <mxPoint x="910" y="60" as="targetPoint" />
          </mxGeometry>
        </mxCell>
        <mxCell id="HSkIcH4tQaM3lMBgQ2yI-35" value="" style="endArrow=classic;startArrow=classic;html=1;rounded=0;entryX=0.25;entryY=0.25;entryDx=0;entryDy=0;entryPerimeter=0;exitX=0.96;exitY=0.7;exitDx=0;exitDy=0;exitPerimeter=0;" edge="1" parent="1" source="HSkIcH4tQaM3lMBgQ2yI-1" target="HSkIcH4tQaM3lMBgQ2yI-8">
          <mxGeometry width="50" height="50" relative="1" as="geometry">
            <mxPoint x="540" y="310" as="sourcePoint" />
            <mxPoint x="590" y="260" as="targetPoint" />
          </mxGeometry>
        </mxCell>
        <mxCell id="HSkIcH4tQaM3lMBgQ2yI-36" value="" style="endArrow=classic;startArrow=classic;html=1;rounded=0;entryX=0.16;entryY=0.55;entryDx=0;entryDy=0;entryPerimeter=0;exitX=0.96;exitY=0.7;exitDx=0;exitDy=0;exitPerimeter=0;" edge="1" parent="1" source="HSkIcH4tQaM3lMBgQ2yI-12" target="HSkIcH4tQaM3lMBgQ2yI-14">
          <mxGeometry width="50" height="50" relative="1" as="geometry">
            <mxPoint x="1260" y="290" as="sourcePoint" />
            <mxPoint x="1310" y="240" as="targetPoint" />
          </mxGeometry>
        </mxCell>
        <mxCell id="HSkIcH4tQaM3lMBgQ2yI-37" value="" style="endArrow=classic;startArrow=classic;html=1;rounded=0;exitX=0.875;exitY=0.5;exitDx=0;exitDy=0;exitPerimeter=0;entryX=0.55;entryY=0.95;entryDx=0;entryDy=0;entryPerimeter=0;" edge="1" parent="1" source="HSkIcH4tQaM3lMBgQ2yI-10" target="HSkIcH4tQaM3lMBgQ2yI-12">
          <mxGeometry width="50" height="50" relative="1" as="geometry">
            <mxPoint x="1100" y="480" as="sourcePoint" />
            <mxPoint x="1150" y="430" as="targetPoint" />
          </mxGeometry>
        </mxCell>
        <mxCell id="HSkIcH4tQaM3lMBgQ2yI-39" value="" style="endArrow=classic;startArrow=classic;html=1;rounded=0;entryX=0.55;entryY=0.95;entryDx=0;entryDy=0;entryPerimeter=0;exitX=0.4;exitY=0.1;exitDx=0;exitDy=0;exitPerimeter=0;" edge="1" parent="1" source="HSkIcH4tQaM3lMBgQ2yI-40" target="HSkIcH4tQaM3lMBgQ2yI-1">
          <mxGeometry width="50" height="50" relative="1" as="geometry">
            <mxPoint x="380" y="300" as="sourcePoint" />
            <mxPoint x="430" y="250" as="targetPoint" />
          </mxGeometry>
        </mxCell>
        <mxCell id="HSkIcH4tQaM3lMBgQ2yI-40" value="Atualizações de informações" style="ellipse;shape=cloud;whiteSpace=wrap;html=1;" vertex="1" parent="1">
          <mxGeometry x="360" y="310" width="120" height="80" as="geometry" />
        </mxCell>
        <mxCell id="HSkIcH4tQaM3lMBgQ2yI-41" value="Notificações" style="ellipse;shape=cloud;whiteSpace=wrap;html=1;" vertex="1" parent="1">
          <mxGeometry x="360" y="470" width="120" height="80" as="geometry" />
        </mxCell>
        <mxCell id="HSkIcH4tQaM3lMBgQ2yI-42" style="edgeStyle=orthogonalEdgeStyle;rounded=0;orthogonalLoop=1;jettySize=auto;html=1;exitX=0.55;exitY=0.95;exitDx=0;exitDy=0;exitPerimeter=0;entryX=0.625;entryY=0.2;entryDx=0;entryDy=0;entryPerimeter=0;" edge="1" parent="1" source="HSkIcH4tQaM3lMBgQ2yI-40" target="HSkIcH4tQaM3lMBgQ2yI-41">
          <mxGeometry relative="1" as="geometry" />
        </mxCell>
        <mxCell id="HSkIcH4tQaM3lMBgQ2yI-43" value="Validação de Usuários" style="ellipse;shape=cloud;whiteSpace=wrap;html=1;" vertex="1" parent="1">
          <mxGeometry x="585" y="440" width="120" height="80" as="geometry" />
        </mxCell>
        <mxCell id="HSkIcH4tQaM3lMBgQ2yI-44" style="edgeStyle=orthogonalEdgeStyle;rounded=0;orthogonalLoop=1;jettySize=auto;html=1;exitX=0.55;exitY=0.95;exitDx=0;exitDy=0;exitPerimeter=0;entryX=0.625;entryY=0.2;entryDx=0;entryDy=0;entryPerimeter=0;" edge="1" parent="1" source="HSkIcH4tQaM3lMBgQ2yI-8" target="HSkIcH4tQaM3lMBgQ2yI-43">
          <mxGeometry relative="1" as="geometry" />
        </mxCell>
        <mxCell id="HSkIcH4tQaM3lMBgQ2yI-46" style="edgeStyle=orthogonalEdgeStyle;rounded=0;orthogonalLoop=1;jettySize=auto;html=1;exitX=0.8;exitY=0.8;exitDx=0;exitDy=0;exitPerimeter=0;entryX=0.31;entryY=0.8;entryDx=0;entryDy=0;entryPerimeter=0;" edge="1" parent="1" source="HSkIcH4tQaM3lMBgQ2yI-41" target="HSkIcH4tQaM3lMBgQ2yI-14">
          <mxGeometry relative="1" as="geometry" />
        </mxCell>
      </root>
    </mxGraphModel>
  </diagram>
</mxfile>
